<svg xmlns="http://www.w3.org/2000/svg" viewBox="0 0 29.964 29.966">
  <g id="a9981b02-0944-4e41-a568-2f1f10df51d1" data-name="Layer 2">
    <g id="e0c23d7d-f991-416d-9407-1564f867355c" data-name="Update01">
      <path id="f88c62d3-6d90-480d-abe3-47d36c9bd8b6" data-name="LiveChat" d="M14.983.002A14.9839,14.9839,0,0,0,0,14.985v12.7a2.281,2.281,0,0,0,2.281,2.281h12.7A14.983,14.983,0,0,0,14.981,0ZM7.805,16.981a2,2,0,1,1,2-2A2,2,0,0,1,7.805,16.981Zm7.178,0a2,2,0,1,1,2-2A2,2,0,0,1,14.983,16.981Zm7.179,0a2,2,0,1,1,2-2,2,2,0,0,1-2,2Z" style="fill: #0a1952"/>
    </g>
  </g>
</svg>
